# xmcd
#
# Track frame offsets: 
#        150
#        14801
#        28042
#        44056
#        56283
#        70560
#        80848
#        91564
#        104719
#        114273
#        125218
#        135983
#        146890
#        157787
#        175752
#        186339
#        192241
#        203421
#
# Disc length: 2876 seconds
#
# Revision: 0
# Processed by: cddbd v1.5.2PL0 Copyright (c) Steve Scherf et al.
# Submitted via: ExactAudioCopy v1.1
#
DISCID=f90b3a12
DTITLE=Various Artist - The Country Outlaws: The Bad Side of Country 
DTITLE=[Disc 2]
DYEAR=1900
DGENRE=Country
TTITLE0=Johnny Cash - I Walk the Line (Live)
TTITLE1=Dottie West - Divorce
TTITLE2=Anne Murray - Both Sides Now
TTITLE3=Waylon Jennings - Don't Think Twice It's All Right
TTITLE4=Jerry Lee Lewis - Bottles and Barstools (Live)
TTITLE5=Carl Perkins - Daddy Sang Bass
TTITLE6=Dolly Parton - It Wasn't God Who Made Honky Tonk Angels
TTITLE7=Freddy Fender - The Girl Who Waits on Tables
TTITLE8=George Jones - Lonely Streets
TTITLE9=Conway Twitty - Big Town
TTITLE10=Billie Jo Spears - I'm So Lonesome I Could Cry
TTITLE11=Donna Fargo - Wishful Thinking
TTITLE12=Hank Locklin - Send Me The Pillow You Dream On
TTITLE13=Willie Nelson - The Red Headed Stranger (Live)
TTITLE14=Johnny Paycheck - Jukebox Charlie
TTITLE15=Loretta Lynn - I Fall To Pieces (Live)
TTITLE16=Joann Houston - The Race Is On
TTITLE17=Hank Williams - Lovesick Blues
EXTD=
EXTT0=
EXTT1=
EXTT2=
EXTT3=
EXTT4=
EXTT5=
EXTT6=
EXTT7=
EXTT8=
EXTT9=
EXTT10=
EXTT11=
EXTT12=
EXTT13=
EXTT14=
EXTT15=
EXTT16=
EXTT17=
PLAYORDER=
